<svg width="764" height="187" viewBox="0 0 764 187" fill="none" xmlns="http://www.w3.org/2000/svg">
<path d="M253.012 1.78711V14.2871H223.031V29.5215H253.012V42.0215H223.031V70H206.039V1.78711H253.012ZM284.066 1.78711V70H267.074V1.78711H284.066ZM363.363 49.1992V64.0918C354.835 68.6165 345.899 70.8789 336.557 70.8789C324.447 70.8789 314.796 67.5423 307.602 60.8691C300.44 54.1634 296.859 45.9115 296.859 36.1133C296.859 26.3151 300.635 17.998 308.188 11.1621C315.772 4.32617 325.668 0.908203 337.875 0.908203C347.608 0.908203 355.844 2.91016 362.582 6.91406V22.0996C354.314 17.4447 346.485 15.1172 339.096 15.1172C331.837 15.1172 325.896 17.0703 321.273 20.9766C316.684 24.8503 314.389 29.7982 314.389 35.8203C314.389 41.875 316.651 46.8717 321.176 50.8105C325.733 54.7493 331.56 56.7188 338.656 56.7188C342.172 56.7188 345.557 56.263 348.812 55.3516C352.068 54.4076 356.918 52.3568 363.363 49.1992ZM445.004 1.78711V70H428.012V42.4121H394.027V70H377.035V1.78711H394.027V29.1797H428.012V1.78711H445.004ZM500.131 1.78711L530.404 70H512.143L506.527 56.5234H476.01L470.932 70H452.914L480.404 1.78711H500.131ZM501.498 44.6094L490.512 18.0957L480.502 44.6094H501.498ZM47.8359 117.787V130.287H17.8555V145.521H47.8359V158.021H17.8555V186H0.863281V117.787H47.8359ZM97.4941 116.908C109.115 116.908 118.523 120.424 125.717 127.455C132.911 134.454 136.508 142.608 136.508 151.918C136.508 161.358 132.862 169.545 125.57 176.479C118.279 183.412 108.92 186.879 97.4941 186.879C85.9382 186.879 76.5306 183.428 69.2715 176.527C62.0124 169.626 58.3828 161.423 58.3828 151.918C58.3828 142.576 61.9798 134.405 69.1738 127.406C76.4004 120.408 85.8405 116.908 97.4941 116.908ZM97.4941 172.719C103.939 172.719 109.132 170.814 113.07 167.006C117.009 163.165 118.979 158.135 118.979 151.918C118.979 145.668 117.009 140.639 113.07 136.83C109.132 133.021 103.939 131.117 97.4941 131.117C91.0163 131.117 85.7917 133.021 81.8203 136.83C77.8815 140.639 75.9121 145.668 75.9121 151.918C75.9121 158.135 77.8815 163.165 81.8203 167.006C85.7917 170.814 91.0163 172.719 97.4941 172.719ZM203.842 117.787V130.287H179.135V186H162.143V130.287H137.436V117.787H203.842ZM243.881 116.908C255.502 116.908 264.91 120.424 272.104 127.455C279.298 134.454 282.895 142.608 282.895 151.918C282.895 161.358 279.249 169.545 271.957 176.479C264.665 183.412 255.307 186.879 243.881 186.879C232.325 186.879 222.917 183.428 215.658 176.527C208.399 169.626 204.77 161.423 204.77 151.918C204.77 142.576 208.367 134.405 215.561 127.406C222.787 120.408 232.227 116.908 243.881 116.908ZM243.881 172.719C250.326 172.719 255.518 170.814 259.457 167.006C263.396 163.165 265.365 158.135 265.365 151.918C265.365 145.668 263.396 140.639 259.457 136.83C255.518 133.021 250.326 131.117 243.881 131.117C237.403 131.117 232.178 133.021 228.207 136.83C224.268 140.639 222.299 145.668 222.299 151.918C222.299 158.135 224.268 163.165 228.207 167.006C232.178 170.814 237.403 172.719 243.881 172.719ZM360.287 122.523V137.416C351.596 133.217 343.1 131.117 334.799 131.117C326.791 131.117 320.622 133.135 316.293 137.172C311.964 141.208 309.799 146.352 309.799 152.602C309.799 158.591 311.964 163.441 316.293 167.152C320.622 170.863 326.319 172.719 333.383 172.719C337.126 172.719 340.886 171.905 344.662 170.277V162.318H334.799V149.818H361.703V177.699C359.001 180.401 354.883 182.615 349.35 184.34C343.848 186.033 338.396 186.879 332.992 186.879C321.111 186.879 311.345 183.607 303.695 177.064C296.078 170.489 292.27 162.139 292.27 152.016C292.27 141.664 296.078 133.233 303.695 126.723C311.345 120.18 321.241 116.908 333.383 116.908C343.409 116.908 352.377 118.78 360.287 122.523ZM376.547 117.787H407.016C413.624 117.787 418.995 119.708 423.129 123.549C427.263 127.357 429.33 131.98 429.33 137.416C429.33 144.936 425.424 150.502 417.611 154.115C421.062 155.645 424.317 159.828 427.377 166.664C430.469 173.5 433.448 179.945 436.312 186H417.611C416.505 183.754 414.568 179.473 411.801 173.158C409.066 166.843 406.706 162.79 404.721 161C402.768 159.21 400.668 158.314 398.422 158.314H393.539V186H376.547V117.787ZM393.539 130.287V145.814H402.523C405.388 145.814 407.65 145.147 409.311 143.812C411.003 142.445 411.85 140.508 411.85 138.002C411.85 132.859 408.611 130.287 402.133 130.287H393.539ZM484.115 117.787L514.389 186H496.127L490.512 172.523H459.994L454.916 186H436.898L464.389 117.787H484.115ZM485.482 160.609L474.496 134.096L464.486 160.609H485.482ZM491.635 96.5957L475.131 111.195H467.709L475.131 96.5957H491.635ZM569.32 117.787V130.287H539.34V145.521H569.32V158.021H539.34V186H522.348V117.787H569.32ZM600.375 117.787V186H583.383V117.787H600.375ZM679.672 165.199V180.092C671.143 184.617 662.208 186.879 652.865 186.879C640.756 186.879 631.104 183.542 623.91 176.869C616.749 170.163 613.168 161.911 613.168 152.113C613.168 142.315 616.944 133.998 624.496 127.162C632.081 120.326 641.977 116.908 654.184 116.908C663.917 116.908 672.152 118.91 678.891 122.914V138.1C670.622 133.445 662.794 131.117 655.404 131.117C648.145 131.117 642.204 133.07 637.582 136.977C632.992 140.85 630.697 145.798 630.697 151.82C630.697 157.875 632.96 162.872 637.484 166.811C642.042 170.749 647.868 172.719 654.965 172.719C658.48 172.719 661.866 172.263 665.121 171.352C668.376 170.408 673.227 168.357 679.672 165.199ZM733.139 117.787L763.412 186H745.15L739.535 172.523H709.018L703.939 186H685.922L713.412 117.787H733.139ZM734.506 160.609L723.52 134.096L713.51 160.609H734.506Z" fill="black"/>
</svg>
