<?xml version="1.0" standalone="no"?>
<!DOCTYPE svg PUBLIC "-//W3C//DTD SVG 20010904//EN"
 "http://www.w3.org/TR/2001/REC-SVG-20010904/DTD/svg10.dtd">
<svg version="1.0" xmlns="http://www.w3.org/2000/svg"
 width="512.000000pt" height="512.000000pt" viewBox="0 0 512.000000 512.000000"
 preserveAspectRatio="xMidYMid meet">

<g transform="translate(0.000000,512.000000) scale(0.100000,-0.100000)"
fill="#000000" stroke="none">
<path d="M1788 4866 c-63 -25 -89 -47 -204 -179 -87 -100 -123 -134 -161 -152
-84 -39 -143 -127 -143 -215 0 -88 59 -176 142 -215 38 -18 75 -53 166 -156
141 -160 178 -184 287 -184 59 0 79 5 123 30 98 53 152 147 160 274 4 63 10
82 32 111 67 85 67 195 0 280 -22 29 -28 48 -32 115 -9 128 -61 216 -158 269
-63 34 -155 44 -212 22z m140 -166 c32 -20 71 -86 72 -122 0 -16 -14 -18 -157
-18 -148 0 -155 1 -141 18 105 125 124 141 168 142 14 0 40 -9 58 -20z m127
-325 c16 -15 25 -36 25 -55 0 -19 -9 -40 -25 -55 l-24 -25 -271 0 -271 0 -24
25 c-16 15 -25 36 -25 55 0 19 9 40 25 55 l24 25 271 0 271 0 24 -25z m-55
-312 c-1 -37 -40 -103 -72 -123 -61 -37 -108 -22 -173 56 -78 93 -87 84 89 84
142 0 156 -2 156 -17z"/>
<path d="M2513 4390 c-47 -19 -57 -87 -18 -125 19 -20 34 -25 75 -25 80 0 118
49 89 113 -19 42 -90 60 -146 37z"/>
<path d="M2885 4388 c-51 -27 -60 -84 -20 -123 21 -22 33 -25 95 -25 62 0 74
3 95 25 33 32 33 78 0 110 -20 21 -33 25 -87 25 -35 0 -72 -6 -83 -12z"/>
<path d="M3272 4365 c-47 -60 -16 -113 81 -139 60 -16 67 -16 96 -2 56 30 53
104 -7 139 -17 10 -58 21 -90 24 -55 5 -60 4 -80 -22z"/>
<path d="M3565 4109 c-37 -21 -45 -41 -45 -116 0 -95 21 -121 95 -113 44 4 60
35 60 115 0 61 -4 78 -20 94 -26 25 -65 34 -90 20z"/>
<path d="M3332 3765 c-24 -7 -52 -21 -63 -31 -28 -25 -25 -79 7 -111 22 -22
31 -25 69 -19 103 14 159 67 135 127 -21 51 -64 60 -148 34z"/>
<path d="M1728 3432 c-450 -181 -819 -330 -821 -332 -114 -136 -339 -430 -344
-448 -13 -52 12 -72 170 -135 l147 -59 0 -763 c0 -712 1 -764 18 -783 17 -20
1597 -660 1652 -669 37 -7 1655 641 1675 670 13 19 15 127 15 782 l0 761 145
58 c150 60 175 78 175 127 0 35 -326 446 -373 471 -18 9 -282 116 -587 238
-305 122 -558 224 -562 226 -4 2 4 15 18 29 29 29 31 64 4 98 -30 38 -53 41
-126 17 -48 -16 -68 -29 -76 -46 -7 -14 -16 -23 -22 -20 -6 2 -68 27 -139 55
-70 28 -133 51 -140 51 -6 -1 -380 -148 -829 -328z m1530 -117 c370 -148 672
-272 672 -275 0 -3 -308 -129 -685 -280 l-685 -274 -685 274 c-377 151 -685
277 -685 280 0 11 1355 550 1376 547 11 -2 323 -124 692 -272z m-1538 -665
c388 -155 706 -283 707 -284 1 -1 -46 -62 -104 -135 -73 -91 -111 -131 -122
-128 -16 4 -1425 567 -1428 570 0 1 47 62 105 135 71 88 112 132 122 129 8 -2
332 -131 720 -287z m2524 158 c58 -73 104 -133 103 -134 -4 -4 -1411 -566
-1428 -571 -11 -3 -49 37 -122 129 -59 73 -103 134 -99 136 280 114 1420 570
1429 571 6 0 59 -58 117 -131z m-2607 -653 c324 -129 597 -235 609 -235 30 0
44 13 143 139 l91 113 0 -867 c0 -690 -3 -866 -12 -862 -7 3 -331 132 -720
288 l-708 283 0 688 c0 378 2 688 5 688 3 0 269 -106 592 -235z m2443 -453 l0
-688 -717 -287 c-394 -158 -718 -285 -720 -283 -2 1 -2 389 -1 862 l3 859 84
-105 c101 -126 116 -140 150 -140 14 1 287 106 606 235 319 128 583 234 588
234 4 1 7 -309 7 -687z"/>
<path d="M2628 3499 c-26 -15 -77 -93 -84 -128 -5 -25 -1 -36 24 -61 55 -55
108 -31 160 72 17 36 20 51 13 71 -18 47 -73 70 -113 46z"/>
<path d="M2515 3108 c-34 -20 -44 -41 -45 -91 0 -59 31 -97 80 -97 49 0 80 38
80 98 0 59 -21 90 -65 97 -16 3 -39 0 -50 -7z"/>
</g>
</svg>
